<svg xmlns:xlink="http://www.w3.org/1999/xlink" xmlns="http://www.w3.org/2000/svg" aria-label="Create" class="AssemblyIcon AssemblyIcon--medium" role="img" width="24"  height="24" ><defs><symbol id="plus" viewBox="0 0 24 24">
    <path fill-rule="evenodd" clip-rule="evenodd" d="M20 13H13V20C13 20.6187 12.6187 21 12 21C11.3813 21 11 20.6187 11 20V13H4C3.38125 13 3 12.6187 3 12C3 11.3813 3.38125 11 4 11H11V4C11 3.38125 11.3813 3 12 3C12.6187 3 13 3.38125 13 4V11H20C20.6187 11 21 11.3813 21 12C21 12.6187 20.6187 13 20 13Z"></path>
</symbol></defs><noscript fill="#fff"></noscript><use xlink:href="#plus" fill="#fff"></use><noscript fill="#fff"></noscript></svg>