<svg xmlns:xlink="http://www.w3.org/1999/xlink" xmlns="http://www.w3.org/2000/svg" aria-label="check" class="AssemblyIcon AssemblyIcon--large" role="img" width="26"  height="32" ><defs><symbol id="check" viewBox="0 0 24 24">
    <path d="M8.81867 20C8.64594 20 8.48401 19.9699 8.33287 19.9098C8.18173 19.8506 8.04139 19.7494 7.91185 19.6063L2.34136 13.4497C2.10386 13.1872 1.99029 12.8469 2.00065 12.4288C2.01188 12.0117 2.13624 11.6719 2.37374 11.4094C2.61124 11.1469 2.91352 11.0157 3.28057 11.0157C3.64761 11.0157 3.94989 11.1469 4.18739 11.4094L8.81867 16.528L19.7977 4.39374C20.0352 4.13125 20.3431 4 20.7214 4C21.0988 4 21.4062 4.13125 21.6437 4.39374C21.8813 4.65623 22 4.99603 22 5.41315C22 5.83123 21.8813 6.17151 21.6437 6.434L9.72549 19.6063C9.59595 19.7494 9.4556 19.8506 9.30447 19.9098C9.15333 19.9699 8.9914 20 8.81867 20Z"></path>
</symbol></defs><noscript fill="#18AE79"></noscript><use xlink:href="#check" fill="#18AE79"></use><noscript fill="#18AE79"></noscript></svg>